<svg xmlns="http://www.w3.org/2000/svg" viewBox="0 0 800 200" width="100%" height="200">
  <defs>
    <linearGradient id="cyberGrad" x1="0%" y1="0%" x2="100%" y2="100%">
      <stop offset="0%" stop-color="#020617" />
      <stop offset="100%" stop-color="#050a18" />
    </linearGradient>
    <linearGradient id="neonGlow" x1="0%" y1="0%" x2="100%" y2="0%">
      <stop offset="0%" stop-color="#00ffd5" stop-opacity="0" />
      <stop offset="50%" stop-color="#00ffd5" stop-opacity="0.8" />
      <stop offset="100%" stop-color="#00ffd5" stop-opacity="0" />
    </linearGradient>
  </defs>

  <style>
    @keyframes pulse {
      0%, 100% { opacity: 0.3; }
      50% { opacity: 0.95; }
    }
    @keyframes scan {
      0% { transform: translateY(0px); }
      50% { transform: translateY(192px); }
      100% { transform: translateY(0px); }
    }
    @keyframes rot {
      from { transform: rotate(0deg); }
      to { transform: rotate(360deg); }
    }
    @keyframes blink {
      50% { opacity: 0; }
    }
    .grid {
      stroke: rgba(0, 255, 213, 0.04);
      stroke-width: 1;
    }
    .border-cyan {
      stroke: #00ffd5;
      stroke-width: 1.5;
      opacity: 0.8;
    }
    .scan-line {
      fill: url(#neonGlow);
      animation: scan 6s ease-in-out infinite;
    }
    .glow-dot {
      fill: #00ffd5;
      animation: pulse 2s ease-in-out infinite;
    }
    .rot-ring {
      transform-origin: 700px 100px;
      animation: rot 20s linear infinite;
    }
    .rot-ring-rev {
      transform-origin: 700px 100px;
      animation: rot 12s linear infinite reverse;
    }
    .cursor-blink {
      animation: blink 1s step-end infinite;
    }
  </style>

  <!-- Background -->
  <rect width="800" height="200" fill="url(#cyberGrad)" rx="16" />

  <!-- Cyber Grid -->
  <g class="grid">
    <!-- Horizontal -->
    <line x1="0" y1="20" x2="800" y2="20" />
    <line x1="0" y1="40" x2="800" y2="40" />
    <line x1="0" y1="60" x2="800" y2="60" />
    <line x1="0" y1="80" x2="800" y2="80" />
    <line x1="0" y1="100" x2="800" y2="100" />
    <line x1="0" y1="120" x2="800" y2="120" />
    <line x1="0" y1="140" x2="800" y2="140" />
    <line x1="0" y1="160" x2="800" y2="160" />
    <line x1="0" y1="180" x2="800" y2="180" />
    <!-- Vertical -->
    <line x1="40" y1="0" x2="40" y2="200" />
    <line x1="80" y1="0" x2="80" y2="200" />
    <line x1="120" y1="0" x2="120" y2="200" />
    <line x1="160" y1="0" x2="160" y2="200" />
    <line x1="200" y1="0" x2="200" y2="200" />
    <line x1="240" y1="0" x2="240" y2="200" />
    <line x1="280" y1="0" x2="280" y2="200" />
    <line x1="320" y1="0" x2="320" y2="200" />
    <line x1="360" y1="0" x2="360" y2="200" />
    <line x1="400" y1="0" x2="400" y2="200" />
    <line x1="440" y1="0" x2="440" y2="200" />
    <line x1="480" y1="0" x2="480" y2="200" />
    <line x1="520" y1="0" x2="520" y2="200" />
    <line x1="560" y1="0" x2="560" y2="200" />
    <line x1="600" y1="0" x2="600" y2="200" />
    <line x1="640" y1="0" x2="640" y2="200" />
    <line x1="680" y1="0" x2="680" y2="200" />
    <line x1="720" y1="0" x2="720" y2="200" />
    <line x1="760" y1="0" x2="760" y2="200" />
  </g>

  <!-- Glowing Scanner Line Overlay -->
  <rect class="scan-line" x="0" y="0" width="800" height="8" />

  <!-- Borders -->
  <rect x="10" y="10" width="780" height="180" rx="8" fill="none" stroke="rgba(0, 255, 213, 0.15)" stroke-width="1" />
  <rect x="5" y="5" width="790" height="190" rx="12" fill="none" stroke="rgba(0, 255, 213, 0.08)" stroke-width="1" />

  <!-- HUD Details Left -->
  <text x="35" y="45" font-family="monospace" font-size="10" fill="rgba(0, 255, 213, 0.4)">SYS.STATUS: SECURE_CORE_v1.0</text>
  <text x="35" y="60" font-family="monospace" font-size="10" fill="rgba(0, 255, 213, 0.4)">NODE ID: 616_NODE_SECURE</text>

  <!-- Typing Text Header -->
  <text x="35" y="115" font-family="Courier New, Courier, monospace" font-size="20" fill="#00ffd5" font-weight="bold">ARGHYADEVS // CORE SYSTEMS</text>
  <text x="35" y="145" font-family="monospace" font-size="13" fill="#fff" opacity="0.8">> Initializing portfolios and AI dashboard...<tspan class="cursor-blink" fill="#00ffd5">_</tspan></text>

  <!-- HUD Circle HUD Right -->
  <circle cx="700" cy="100" r="50" fill="none" stroke="rgba(0, 255, 213, 0.1)" stroke-width="1" />
  <circle cx="700" cy="100" r="42" fill="none" stroke="rgba(0, 255, 213, 0.25)" stroke-dasharray="12 6" class="rot-ring" stroke-width="1.5" />
  <circle cx="700" cy="100" r="30" fill="none" stroke="#00ffd5" stroke-dasharray="4 8" class="rot-ring-rev" stroke-width="2" />
  <circle cx="700" cy="100" r="5" fill="#00ffd5" class="glow-dot" />

  <!-- Glowing Corners -->
  <path d="M 10 30 L 10 10 L 30 10" fill="none" stroke="#00ffd5" stroke-width="2" />
  <path d="M 770 10 L 790 10 L 790 30" fill="none" stroke="#00ffd5" stroke-width="2" />
  <path d="M 10 170 L 10 190 L 30 190" fill="none" stroke="#00ffd5" stroke-width="2" />
  <path d="M 770 190 L 790 190 L 790 170" fill="none" stroke="#00ffd5" stroke-width="2" />
</svg>
